<svg width="23" height="32" viewBox="0 0 23 32" fill="none" xmlns="http://www.w3.org/2000/svg">
<path d="M12.325 15.5L13.8 14.425L15.25 15.5L14.675 13.8L16.15 12.725H14.35L13.8 11L13.25 12.725H11.425L12.9 13.8L12.325 15.5V15.5M11.3 21C12.6833 21 13.8625 20.5166 14.8375 19.55C15.8125 18.5833 16.3 17.4 16.3 16C16.3 15.8666 16.2958 15.7333 16.2875 15.6C16.2792 15.4666 16.2583 15.3333 16.225 15.2C16.0417 15.9833 15.6333 16.6291 15 17.1375C14.3667 17.6458 13.625 17.9 12.775 17.9C11.775 17.9 10.9333 17.5583 10.25 16.875C9.56667 16.1916 9.225 15.35 9.225 14.35C9.225 13.5833 9.44167 12.8958 9.875 12.2875C10.3083 11.6791 10.875 11.25 11.575 11H11.3C9.9 11 8.71667 11.4875 7.75 12.4625C6.78333 13.4375 6.3 14.6166 6.3 16C6.3 17.4 6.78333 18.5833 7.75 19.55C8.71667 20.5166 9.9 21 11.3 21V21M11.3 27.3L7.95 24H3.3V19.35L0 16L3.3 12.65V7.99995H7.95L11.3 4.69995L14.65 7.99995H19.3V12.65L22.6 16L19.3 19.35V24H14.65L11.3 27.3V27.3M11.3 24.5L13.8 22H17.3V18.5L19.8 16L17.3 13.5V9.99995H13.8L11.3 7.49995L8.8 9.99995H5.3V13.5L2.8 16L5.3 18.5V22H8.8L11.3 24.5V24.5M11.3 16V16V16V16V16V16V16V16V16V16V16V16V16V16V16V16V16V16" fill="currentColor"/>
</svg>
